<?xml version="1.0" encoding="UTF-8" standalone="no"?>
<!DOCTYPE svg PUBLIC "-//W3C//DTD SVG 1.1//EN"
 "http://www.w3.org/Graphics/SVG/1.1/DTD/svg11.dtd">
<!-- Generated by graphviz version 2.43.0 (0)
 -->
<!-- Title: packages Pages: 1 -->
<svg width="869pt" height="260pt"
 viewBox="0.00 0.00 868.91 260.00" xmlns="http://www.w3.org/2000/svg" xmlns:xlink="http://www.w3.org/1999/xlink">
<g id="graph0" class="graph" transform="scale(1 1) rotate(0) translate(4 256)">
<title>packages</title>
<polygon fill="white" stroke="transparent" points="-4,4 -4,-256 864.91,-256 864.91,4 -4,4"/>
<!-- pipeline -->
<g id="node1" class="node">
<title>pipeline</title>
<polygon fill="none" stroke="black" points="148.41,-36 74.41,-36 74.41,0 148.41,0 148.41,-36"/>
<text text-anchor="middle" x="111.41" y="-14.3" font-family="Times,serif" font-size="14.00">pipeline</text>
</g>
<!-- pipeline.constants -->
<g id="node2" class="node">
<title>pipeline.constants</title>
<polygon fill="none" stroke="black" points="172.91,-252 25.91,-252 25.91,-216 172.91,-216 172.91,-252"/>
<text text-anchor="middle" x="99.41" y="-230.3" font-family="Times,serif" font-size="14.00">pipeline.constants</text>
</g>
<!-- pipeline&#45;&gt;pipeline.constants -->
<g id="edge1" class="edge">
<title>pipeline&#45;&gt;pipeline.constants</title>
<path fill="none" stroke="black" d="M89.66,-36.08C63.84,-57.89 22.17,-98.32 5.41,-144 -0.1,-159.02 -2.66,-166.18 5.41,-180 13.17,-193.27 25.6,-203.48 38.92,-211.22"/>
<polygon fill="black" stroke="black" points="47.76,-215.96 36.83,-215.2 43.36,-213.6 38.95,-211.24 38.95,-211.24 38.95,-211.24 43.36,-213.6 41.08,-207.27 47.76,-215.96 47.76,-215.96"/>
</g>
<!-- pipeline.datastrategy -->
<g id="node3" class="node">
<title>pipeline.datastrategy</title>
<polygon fill="none" stroke="black" points="184.41,-180 14.41,-180 14.41,-144 184.41,-144 184.41,-180"/>
<text text-anchor="middle" x="99.41" y="-158.3" font-family="Times,serif" font-size="14.00">pipeline.datastrategy</text>
</g>
<!-- pipeline&#45;&gt;pipeline.datastrategy -->
<g id="edge2" class="edge">
<title>pipeline&#45;&gt;pipeline.datastrategy</title>
<path fill="none" stroke="black" d="M98.27,-36.09C91.49,-45.99 83.93,-59.04 80.41,-72 74.82,-92.65 80.46,-116.36 87.01,-134.11"/>
<polygon fill="black" stroke="black" points="90.9,-143.81 83,-136.2 89.04,-139.17 87.18,-134.52 87.18,-134.52 87.18,-134.52 89.04,-139.17 91.36,-132.85 90.9,-143.81 90.9,-143.81"/>
</g>
<!-- pipeline.flowatom -->
<g id="node4" class="node">
<title>pipeline.flowatom</title>
<polygon fill="none" stroke="black" points="232.91,-108 89.91,-108 89.91,-72 232.91,-72 232.91,-108"/>
<text text-anchor="middle" x="161.41" y="-86.3" font-family="Times,serif" font-size="14.00">pipeline.flowatom</text>
</g>
<!-- pipeline&#45;&gt;pipeline.flowatom -->
<g id="edge3" class="edge">
<title>pipeline&#45;&gt;pipeline.flowatom</title>
<path fill="none" stroke="black" d="M123.77,-36.3C129.65,-44.53 136.78,-54.52 143.26,-63.58"/>
<polygon fill="black" stroke="black" points="149.2,-71.9 139.72,-66.37 146.29,-67.83 143.38,-63.76 143.38,-63.76 143.38,-63.76 146.29,-67.83 147.05,-61.14 149.2,-71.9 149.2,-71.9"/>
</g>
<!-- pipeline.tasks -->
<g id="node5" class="node">
<title>pipeline.tasks</title>
<polygon fill="none" stroke="black" points="367.41,-108 251.41,-108 251.41,-72 367.41,-72 367.41,-108"/>
<text text-anchor="middle" x="309.41" y="-86.3" font-family="Times,serif" font-size="14.00">pipeline.tasks</text>
</g>
<!-- pipeline&#45;&gt;pipeline.tasks -->
<g id="edge4" class="edge">
<title>pipeline&#45;&gt;pipeline.tasks</title>
<path fill="none" stroke="black" d="M148.55,-32.79C151.55,-33.88 154.53,-34.96 157.41,-36 187.88,-46.94 221.9,-58.83 250.02,-68.57"/>
<polygon fill="black" stroke="black" points="259.7,-71.93 248.78,-72.91 254.98,-70.29 250.25,-68.66 250.25,-68.66 250.25,-68.66 254.98,-70.29 251.72,-64.4 259.7,-71.93 259.7,-71.93"/>
</g>
<!-- pipeline.datastrategy&#45;&gt;pipeline.constants -->
<g id="edge5" class="edge">
<title>pipeline.datastrategy&#45;&gt;pipeline.constants</title>
<path fill="none" stroke="black" d="M99.41,-180.3C99.41,-188.02 99.41,-197.29 99.41,-205.89"/>
<polygon fill="black" stroke="black" points="99.41,-215.9 94.91,-205.9 99.41,-210.9 99.41,-205.9 99.41,-205.9 99.41,-205.9 99.41,-210.9 103.91,-205.9 99.41,-215.9 99.41,-215.9"/>
</g>
<!-- pipeline.flowatom&#45;&gt;pipeline.constants -->
<g id="edge6" class="edge">
<title>pipeline.flowatom&#45;&gt;pipeline.constants</title>
<path fill="none" stroke="black" d="M176.1,-108.21C190.04,-126.76 207,-156.75 193.41,-180 185.66,-193.27 173.23,-203.48 159.9,-211.22"/>
<polygon fill="black" stroke="black" points="151.06,-215.96 157.75,-207.27 155.47,-213.6 159.87,-211.24 159.87,-211.24 159.87,-211.24 155.47,-213.6 162,-215.2 151.06,-215.96 151.06,-215.96"/>
</g>
<!-- pipeline.flowatom&#45;&gt;pipeline.datastrategy -->
<g id="edge7" class="edge">
<title>pipeline.flowatom&#45;&gt;pipeline.datastrategy</title>
<path fill="none" stroke="black" d="M146.09,-108.3C138.65,-116.7 129.59,-126.93 121.43,-136.14"/>
<polygon fill="black" stroke="black" points="114.56,-143.9 117.82,-133.43 117.88,-140.15 121.19,-136.41 121.19,-136.41 121.19,-136.41 117.88,-140.15 124.56,-139.39 114.56,-143.9 114.56,-143.9"/>
</g>
<!-- pipeline.tasks.demodatatasks -->
<g id="node6" class="node">
<title>pipeline.tasks.demodatatasks</title>
<polygon fill="none" stroke="black" points="394.41,-36 166.41,-36 166.41,0 394.41,0 394.41,-36"/>
<text text-anchor="middle" x="280.41" y="-14.3" font-family="Times,serif" font-size="14.00">pipeline.tasks.demodatatasks</text>
</g>
<!-- pipeline.tasks.demotasks -->
<g id="node7" class="node">
<title>pipeline.tasks.demotasks</title>
<polygon fill="none" stroke="black" points="609.91,-36 412.91,-36 412.91,0 609.91,0 609.91,-36"/>
<text text-anchor="middle" x="511.41" y="-14.3" font-family="Times,serif" font-size="14.00">pipeline.tasks.demotasks</text>
</g>
<!-- pipeline.tasks.discovery_tasks -->
<g id="node8" class="node">
<title>pipeline.tasks.discovery_tasks</title>
<polygon fill="none" stroke="black" points="860.91,-36 627.91,-36 627.91,0 860.91,0 860.91,-36"/>
<text text-anchor="middle" x="744.41" y="-14.3" font-family="Times,serif" font-size="14.00">pipeline.tasks.discovery_tasks</text>
</g>
<!-- pipeline.tasks.utils -->
<g id="node9" class="node">
<title>pipeline.tasks.utils</title>
<polygon fill="none" stroke="black" points="820.41,-108 668.41,-108 668.41,-72 820.41,-72 820.41,-108"/>
<text text-anchor="middle" x="744.41" y="-86.3" font-family="Times,serif" font-size="14.00">pipeline.tasks.utils</text>
</g>
<!-- pipeline.tasks.discovery_tasks&#45;&gt;pipeline.tasks.utils -->
<g id="edge8" class="edge">
<title>pipeline.tasks.discovery_tasks&#45;&gt;pipeline.tasks.utils</title>
<path fill="none" stroke="black" d="M744.41,-36.3C744.41,-44.02 744.41,-53.29 744.41,-61.89"/>
<polygon fill="black" stroke="black" points="744.41,-71.9 739.91,-61.9 744.41,-66.9 744.41,-61.9 744.41,-61.9 744.41,-61.9 744.41,-66.9 748.91,-61.9 744.41,-71.9 744.41,-71.9"/>
</g>
</g>
</svg>
