<?xml version="1.0" encoding="UTF-8" standalone="no"?>
<!DOCTYPE svg PUBLIC "-//W3C//DTD SVG 1.1//EN"
 "http://www.w3.org/Graphics/SVG/1.1/DTD/svg11.dtd">
<!-- Generated by graphviz version 2.43.0 (0)
 -->
<!-- Title: classes Pages: 1 -->
<svg width="3551pt" height="546pt"
 viewBox="0.00 0.00 3550.50 546.00" xmlns="http://www.w3.org/2000/svg" xmlns:xlink="http://www.w3.org/1999/xlink">
<g id="graph0" class="graph" transform="scale(1 1) rotate(0) translate(4 542)">
<title>classes</title>
<polygon fill="white" stroke="transparent" points="-4,4 -4,-542 3546.5,-542 3546.5,4 -4,4"/>
<!-- pipeline.tasks.demodatatasks.CountItems -->
<g id="node1" class="node">
<title>pipeline.tasks.demodatatasks.CountItems</title>
<polygon fill="none" stroke="black" points="0,-167 0,-267 167,-267 167,-167 0,-167"/>
<text text-anchor="middle" x="83.5" y="-251.8" font-family="Times,serif" font-size="14.00">CountItems</text>
<polyline fill="none" stroke="black" points="0,-244 167,-244 "/>
<polyline fill="none" stroke="black" points="0,-220 167,-220 "/>
<text text-anchor="start" x="8" y="-204.8" font-family="Times,serif" font-size="14.00">inputs(to_count: list)</text>
<text text-anchor="start" x="8" y="-189.8" font-family="Times,serif" font-size="14.00">outputs(counted: int)</text>
<text text-anchor="start" x="8" y="-174.8" font-family="Times,serif" font-size="14.00">task_body()</text>
</g>
<!-- pipeline.flowatom.FlowAtom -->
<g id="node5" class="node">
<title>pipeline.flowatom.FlowAtom</title>
<polygon fill="none" stroke="black" points="803,-333.5 803,-537.5 952,-537.5 952,-333.5 803,-333.5"/>
<text text-anchor="middle" x="877.5" y="-522.3" font-family="Times,serif" font-size="14.00">FlowAtom</text>
<polyline fill="none" stroke="black" points="803,-514.5 952,-514.5 "/>
<text text-anchor="start" x="811" y="-499.3" font-family="Times,serif" font-size="14.00">data</text>
<text text-anchor="start" x="811" y="-484.3" font-family="Times,serif" font-size="14.00">task_inputs : dict</text>
<text text-anchor="start" x="811" y="-469.3" font-family="Times,serif" font-size="14.00">task_name : str</text>
<text text-anchor="start" x="811" y="-454.3" font-family="Times,serif" font-size="14.00">task_outputs : dict</text>
<polyline fill="none" stroke="black" points="803,-446.5 952,-446.5 "/>
<text text-anchor="start" x="811" y="-431.3" font-family="Times,serif" font-size="14.00">get_atoms()</text>
<text text-anchor="start" x="811" y="-416.3" font-family="Times,serif" font-size="14.00">get_data()</text>
<text text-anchor="start" x="811" y="-401.3" font-family="Times,serif" font-size="14.00">inputs()</text>
<text text-anchor="start" x="811" y="-386.3" font-family="Times,serif" font-size="14.00">outputs()</text>
<text text-anchor="start" x="811" y="-371.3" font-family="Times,serif" font-size="14.00">register(name)</text>
<text text-anchor="start" x="811" y="-356.3" font-family="Times,serif" font-size="14.00">task_body()</text>
<text text-anchor="start" x="811" y="-341.3" font-family="Times,serif" font-size="14.00">write_data(data)</text>
</g>
<!-- pipeline.tasks.demodatatasks.CountItems&#45;&gt;pipeline.flowatom.FlowAtom -->
<g id="edge3" class="edge">
<title>pipeline.tasks.demodatatasks.CountItems&#45;&gt;pipeline.flowatom.FlowAtom</title>
<path fill="none" stroke="black" d="M131.81,-267.02C145.31,-278.38 160.66,-289.37 176.5,-297 382.72,-396.34 655.96,-423.91 792.39,-431.56"/>
<polygon fill="none" stroke="black" points="792.59,-435.08 802.77,-432.12 792.97,-428.09 792.59,-435.08"/>
</g>
<!-- pipeline.datastrategy.DataStrategy -->
<g id="node2" class="node">
<title>pipeline.datastrategy.DataStrategy</title>
<polygon fill="none" stroke="black" points="3131,-137.5 3131,-296.5 3290,-296.5 3290,-137.5 3131,-137.5"/>
<text text-anchor="middle" x="3210.5" y="-281.3" font-family="Times,serif" font-size="14.00">DataStrategy</text>
<polyline fill="none" stroke="black" points="3131,-273.5 3290,-273.5 "/>
<text text-anchor="start" x="3139" y="-258.3" font-family="Times,serif" font-size="14.00">config</text>
<text text-anchor="start" x="3139" y="-243.3" font-family="Times,serif" font-size="14.00">function_inputs</text>
<text text-anchor="start" x="3139" y="-228.3" font-family="Times,serif" font-size="14.00">function_outputs</text>
<polyline fill="none" stroke="black" points="3131,-220.5 3290,-220.5 "/>
<text text-anchor="start" x="3139" y="-205.3" font-family="Times,serif" font-size="14.00">get_data()</text>
<text text-anchor="start" x="3139" y="-190.3" font-family="Times,serif" font-size="14.00">get_strats()</text>
<text text-anchor="start" x="3139" y="-175.3" font-family="Times,serif" font-size="14.00">register(_name)</text>
<text text-anchor="start" x="3139" y="-160.3" font-family="Times,serif" font-size="14.00">setup_config(config)</text>
<text text-anchor="start" x="3139" y="-145.3" font-family="Times,serif" font-size="14.00">write_data(data)</text>
</g>
<!-- pipeline.tasks.demotasks.DefaultParameters -->
<g id="node3" class="node">
<title>pipeline.tasks.demotasks.DefaultParameters</title>
<polygon fill="none" stroke="black" points="185.5,-167.5 185.5,-266.5 337.5,-266.5 337.5,-167.5 185.5,-167.5"/>
<text text-anchor="middle" x="261.5" y="-251.3" font-family="Times,serif" font-size="14.00">DefaultParameters</text>
<polyline fill="none" stroke="black" points="185.5,-243.5 337.5,-243.5 "/>
<text text-anchor="start" x="193.5" y="-228.3" font-family="Times,serif" font-size="14.00">a : int</text>
<text text-anchor="start" x="193.5" y="-213.3" font-family="Times,serif" font-size="14.00">b : int</text>
<text text-anchor="start" x="193.5" y="-198.3" font-family="Times,serif" font-size="14.00">c : int</text>
<polyline fill="none" stroke="black" points="185.5,-190.5 337.5,-190.5 "/>
<text text-anchor="start" x="193.5" y="-175.3" font-family="Times,serif" font-size="14.00">task_body()</text>
</g>
<!-- pipeline.tasks.demotasks.DefaultParameters&#45;&gt;pipeline.flowatom.FlowAtom -->
<g id="edge9" class="edge">
<title>pipeline.tasks.demotasks.DefaultParameters&#45;&gt;pipeline.flowatom.FlowAtom</title>
<path fill="none" stroke="black" d="M305.84,-266.88C318.08,-278.11 332.01,-289.06 346.5,-297 491.47,-376.41 683.98,-411.35 792.9,-425.61"/>
<polygon fill="none" stroke="black" points="792.49,-429.09 802.86,-426.89 793.38,-422.15 792.49,-429.09"/>
</g>
<!-- pipeline.tasks.demodatatasks.DivisibleByNTask -->
<g id="node4" class="node">
<title>pipeline.tasks.demodatatasks.DivisibleByNTask</title>
<polygon fill="none" stroke="black" points="356,-167.5 356,-266.5 537,-266.5 537,-167.5 356,-167.5"/>
<text text-anchor="middle" x="446.5" y="-251.3" font-family="Times,serif" font-size="14.00">DivisibleByNTask</text>
<polyline fill="none" stroke="black" points="356,-243.5 537,-243.5 "/>
<text text-anchor="start" x="364" y="-228.3" font-family="Times,serif" font-size="14.00">n : int</text>
<polyline fill="none" stroke="black" points="356,-220.5 537,-220.5 "/>
<text text-anchor="start" x="364" y="-205.3" font-family="Times,serif" font-size="14.00">inputs(to_divide: int)</text>
<text text-anchor="start" x="364" y="-190.3" font-family="Times,serif" font-size="14.00">outputs(divisible: bool)</text>
<text text-anchor="start" x="364" y="-175.3" font-family="Times,serif" font-size="14.00">task_body()</text>
</g>
<!-- pipeline.tasks.demodatatasks.DivisibleByNTask&#45;&gt;pipeline.flowatom.FlowAtom -->
<g id="edge4" class="edge">
<title>pipeline.tasks.demodatatasks.DivisibleByNTask&#45;&gt;pipeline.flowatom.FlowAtom</title>
<path fill="none" stroke="black" d="M502.46,-266.58C516.33,-277.37 531.52,-288.2 546.5,-297 626.05,-343.74 724.49,-382.46 793.26,-406.78"/>
<polygon fill="none" stroke="black" points="792.16,-410.1 802.76,-410.11 794.48,-403.5 792.16,-410.1"/>
</g>
<!-- pipeline.tasks.demodatatasks.GenerateRandomSeriesTask -->
<g id="node6" class="node">
<title>pipeline.tasks.demodatatasks.GenerateRandomSeriesTask</title>
<polygon fill="none" stroke="black" points="555.5,-167.5 555.5,-266.5 773.5,-266.5 773.5,-167.5 555.5,-167.5"/>
<text text-anchor="middle" x="664.5" y="-251.3" font-family="Times,serif" font-size="14.00">GenerateRandomSeriesTask</text>
<polyline fill="none" stroke="black" points="555.5,-243.5 773.5,-243.5 "/>
<text text-anchor="start" x="563.5" y="-228.3" font-family="Times,serif" font-size="14.00">data : DataFrame</text>
<text text-anchor="start" x="563.5" y="-213.3" font-family="Times,serif" font-size="14.00">sample_size : int</text>
<polyline fill="none" stroke="black" points="555.5,-205.5 773.5,-205.5 "/>
<text text-anchor="start" x="563.5" y="-190.3" font-family="Times,serif" font-size="14.00">outputs(numbers: int)</text>
<text text-anchor="start" x="563.5" y="-175.3" font-family="Times,serif" font-size="14.00">task_body()</text>
</g>
<!-- pipeline.tasks.demodatatasks.GenerateRandomSeriesTask&#45;&gt;pipeline.flowatom.FlowAtom -->
<g id="edge5" class="edge">
<title>pipeline.tasks.demodatatasks.GenerateRandomSeriesTask&#45;&gt;pipeline.flowatom.FlowAtom</title>
<path fill="none" stroke="black" d="M712.3,-266.59C736.84,-291.53 767.42,-322.61 795.58,-351.23"/>
<polygon fill="none" stroke="black" points="793.17,-353.78 802.68,-358.45 798.16,-348.87 793.17,-353.78"/>
</g>
<!-- pipeline.tasks.demodatatasks.ListPrimeFactorsTask -->
<g id="node7" class="node">
<title>pipeline.tasks.demodatatasks.ListPrimeFactorsTask</title>
<polygon fill="none" stroke="black" points="791.5,-167 791.5,-267 963.5,-267 963.5,-167 791.5,-167"/>
<text text-anchor="middle" x="877.5" y="-251.8" font-family="Times,serif" font-size="14.00">ListPrimeFactorsTask</text>
<polyline fill="none" stroke="black" points="791.5,-244 963.5,-244 "/>
<polyline fill="none" stroke="black" points="791.5,-220 963.5,-220 "/>
<text text-anchor="start" x="799.5" y="-204.8" font-family="Times,serif" font-size="14.00">inputs(to_factor: int)</text>
<text text-anchor="start" x="799.5" y="-189.8" font-family="Times,serif" font-size="14.00">outputs(factors: list)</text>
<text text-anchor="start" x="799.5" y="-174.8" font-family="Times,serif" font-size="14.00">task_body()</text>
</g>
<!-- pipeline.tasks.demodatatasks.ListPrimeFactorsTask&#45;&gt;pipeline.flowatom.FlowAtom -->
<g id="edge6" class="edge">
<title>pipeline.tasks.demodatatasks.ListPrimeFactorsTask&#45;&gt;pipeline.flowatom.FlowAtom</title>
<path fill="none" stroke="black" d="M877.5,-267.13C877.5,-283.99 877.5,-303.61 877.5,-323.37"/>
<polygon fill="none" stroke="black" points="874,-323.38 877.5,-333.38 881,-323.38 874,-323.38"/>
</g>
<!-- pipeline.datastrategy.NoStrategy -->
<g id="node8" class="node">
<title>pipeline.datastrategy.NoStrategy</title>
<polygon fill="none" stroke="black" points="3011,-0.5 3011,-100.5 3180,-100.5 3180,-0.5 3011,-0.5"/>
<text text-anchor="middle" x="3095.5" y="-85.3" font-family="Times,serif" font-size="14.00">NoStrategy</text>
<polyline fill="none" stroke="black" points="3011,-77.5 3180,-77.5 "/>
<polyline fill="none" stroke="black" points="3011,-53.5 3180,-53.5 "/>
<text text-anchor="start" x="3019" y="-38.3" font-family="Times,serif" font-size="14.00">get_data()</text>
<text text-anchor="start" x="3019" y="-23.3" font-family="Times,serif" font-size="14.00">update_config(config)</text>
<text text-anchor="start" x="3019" y="-8.3" font-family="Times,serif" font-size="14.00">write_data(data)</text>
</g>
<!-- pipeline.datastrategy.NoStrategy&#45;&gt;pipeline.datastrategy.DataStrategy -->
<g id="edge1" class="edge">
<title>pipeline.datastrategy.NoStrategy&#45;&gt;pipeline.datastrategy.DataStrategy</title>
<path fill="none" stroke="black" d="M3130,-100.86C3136.25,-109.79 3142.92,-119.33 3149.66,-128.97"/>
<polygon fill="none" stroke="black" points="3146.99,-131.26 3155.59,-137.45 3152.73,-127.25 3146.99,-131.26"/>
</g>
<!-- pipeline.datastrategy.PandasStrategy -->
<g id="node9" class="node">
<title>pipeline.datastrategy.PandasStrategy</title>
<polygon fill="none" stroke="black" points="3198.5,-0.5 3198.5,-100.5 3450.5,-100.5 3450.5,-0.5 3198.5,-0.5"/>
<text text-anchor="middle" x="3324.5" y="-85.3" font-family="Times,serif" font-size="14.00">PandasStrategy</text>
<polyline fill="none" stroke="black" points="3198.5,-77.5 3450.5,-77.5 "/>
<polyline fill="none" stroke="black" points="3198.5,-53.5 3450.5,-53.5 "/>
<text text-anchor="start" x="3206.5" y="-38.3" font-family="Times,serif" font-size="14.00">get_data()</text>
<text text-anchor="start" x="3206.5" y="-23.3" font-family="Times,serif" font-size="14.00">setup_config(config)</text>
<text text-anchor="start" x="3206.5" y="-8.3" font-family="Times,serif" font-size="14.00">write_data(operating_dataframe)</text>
</g>
<!-- pipeline.datastrategy.PandasStrategy&#45;&gt;pipeline.datastrategy.DataStrategy -->
<g id="edge2" class="edge">
<title>pipeline.datastrategy.PandasStrategy&#45;&gt;pipeline.datastrategy.DataStrategy</title>
<path fill="none" stroke="black" d="M3290.3,-100.86C3284.11,-109.79 3277.49,-119.33 3270.81,-128.97"/>
<polygon fill="none" stroke="black" points="3267.76,-127.24 3264.94,-137.45 3273.51,-131.22 3267.76,-127.24"/>
</g>
<!-- pipeline.Pipeline -->
<g id="node10" class="node">
<title>pipeline.Pipeline</title>
<polygon fill="none" stroke="black" points="3468.5,-8.5 3468.5,-92.5 3542.5,-92.5 3542.5,-8.5 3468.5,-8.5"/>
<text text-anchor="middle" x="3505.5" y="-77.3" font-family="Times,serif" font-size="14.00">Pipeline</text>
<polyline fill="none" stroke="black" points="3468.5,-69.5 3542.5,-69.5 "/>
<text text-anchor="start" x="3476.5" y="-54.3" font-family="Times,serif" font-size="14.00">config</text>
<text text-anchor="start" x="3476.5" y="-39.3" font-family="Times,serif" font-size="14.00">steps</text>
<polyline fill="none" stroke="black" points="3468.5,-31.5 3542.5,-31.5 "/>
<text text-anchor="middle" x="3505.5" y="-16.3" font-family="Times,serif" font-size="14.00"> </text>
</g>
<!-- pipeline.tasks.demodatatasks.PrintField -->
<g id="node11" class="node">
<title>pipeline.tasks.demodatatasks.PrintField</title>
<polygon fill="none" stroke="black" points="982,-167.5 982,-266.5 1157,-266.5 1157,-167.5 982,-167.5"/>
<text text-anchor="middle" x="1069.5" y="-251.3" font-family="Times,serif" font-size="14.00">PrintField</text>
<polyline fill="none" stroke="black" points="982,-243.5 1157,-243.5 "/>
<text text-anchor="start" x="990" y="-228.3" font-family="Times,serif" font-size="14.00">post_message : str</text>
<text text-anchor="start" x="990" y="-213.3" font-family="Times,serif" font-size="14.00">pre_message : str</text>
<polyline fill="none" stroke="black" points="982,-205.5 1157,-205.5 "/>
<text text-anchor="start" x="990" y="-190.3" font-family="Times,serif" font-size="14.00">inputs(to_print: None)</text>
<text text-anchor="start" x="990" y="-175.3" font-family="Times,serif" font-size="14.00">task_body()</text>
</g>
<!-- pipeline.tasks.demodatatasks.PrintField&#45;&gt;pipeline.flowatom.FlowAtom -->
<g id="edge7" class="edge">
<title>pipeline.tasks.demodatatasks.PrintField&#45;&gt;pipeline.flowatom.FlowAtom</title>
<path fill="none" stroke="black" d="M1026.41,-266.59C1006.49,-289.05 982.14,-316.51 958.95,-342.65"/>
<polygon fill="none" stroke="black" points="956.14,-340.55 952.13,-350.35 961.38,-345.19 956.14,-340.55"/>
</g>
<!-- pipeline.tasks.demotasks.PrintParameters -->
<g id="node12" class="node">
<title>pipeline.tasks.demotasks.PrintParameters</title>
<polygon fill="none" stroke="black" points="1175,-182.5 1175,-251.5 1310,-251.5 1310,-182.5 1175,-182.5"/>
<text text-anchor="middle" x="1242.5" y="-236.3" font-family="Times,serif" font-size="14.00">PrintParameters</text>
<polyline fill="none" stroke="black" points="1175,-228.5 1310,-228.5 "/>
<text text-anchor="start" x="1183" y="-213.3" font-family="Times,serif" font-size="14.00">value : str</text>
<polyline fill="none" stroke="black" points="1175,-205.5 1310,-205.5 "/>
<text text-anchor="start" x="1183" y="-190.3" font-family="Times,serif" font-size="14.00">task_body()</text>
</g>
<!-- pipeline.tasks.demotasks.PrintParameters&#45;&gt;pipeline.flowatom.FlowAtom -->
<g id="edge10" class="edge">
<title>pipeline.tasks.demotasks.PrintParameters&#45;&gt;pipeline.flowatom.FlowAtom</title>
<path fill="none" stroke="black" d="M1214.45,-251.82C1200.76,-266.92 1183.4,-284.17 1165.5,-297 1102.13,-342.42 1021.4,-379.45 961.55,-403.59"/>
<polygon fill="none" stroke="black" points="960.12,-400.4 952.13,-407.36 962.71,-406.9 960.12,-400.4"/>
</g>
<!-- pipeline.tasks.demotasks.PrintRandomValues -->
<g id="node13" class="node">
<title>pipeline.tasks.demotasks.PrintRandomValues</title>
<polygon fill="none" stroke="black" points="1328.5,-182.5 1328.5,-251.5 1486.5,-251.5 1486.5,-182.5 1328.5,-182.5"/>
<text text-anchor="middle" x="1407.5" y="-236.3" font-family="Times,serif" font-size="14.00">PrintRandomValues</text>
<polyline fill="none" stroke="black" points="1328.5,-228.5 1486.5,-228.5 "/>
<text text-anchor="start" x="1336.5" y="-213.3" font-family="Times,serif" font-size="14.00">iterations : int</text>
<polyline fill="none" stroke="black" points="1328.5,-205.5 1486.5,-205.5 "/>
<text text-anchor="start" x="1336.5" y="-190.3" font-family="Times,serif" font-size="14.00">task_body()</text>
</g>
<!-- pipeline.tasks.demotasks.PrintRandomValues&#45;&gt;pipeline.flowatom.FlowAtom -->
<g id="edge11" class="edge">
<title>pipeline.tasks.demotasks.PrintRandomValues&#45;&gt;pipeline.flowatom.FlowAtom</title>
<path fill="none" stroke="black" d="M1376.3,-251.67C1360.3,-267.29 1339.73,-285.01 1318.5,-297 1203.62,-361.88 1054.28,-400.15 962.21,-419.22"/>
<polygon fill="none" stroke="black" points="961.47,-415.8 952.37,-421.23 962.87,-422.66 961.47,-415.8"/>
</g>
<!-- pipeline.tasks.demodatatasks.PrintString -->
<g id="node14" class="node">
<title>pipeline.tasks.demodatatasks.PrintString</title>
<polygon fill="none" stroke="black" points="990.5,-15.5 990.5,-85.5 1148.5,-85.5 1148.5,-15.5 990.5,-15.5"/>
<text text-anchor="middle" x="1069.5" y="-70.3" font-family="Times,serif" font-size="14.00">PrintString</text>
<polyline fill="none" stroke="black" points="990.5,-62.5 1148.5,-62.5 "/>
<polyline fill="none" stroke="black" points="990.5,-38.5 1148.5,-38.5 "/>
<text text-anchor="start" x="998.5" y="-23.3" font-family="Times,serif" font-size="14.00">inputs(to_print: str)</text>
</g>
<!-- pipeline.tasks.demodatatasks.PrintString&#45;&gt;pipeline.tasks.demodatatasks.PrintField -->
<g id="edge8" class="edge">
<title>pipeline.tasks.demodatatasks.PrintString&#45;&gt;pipeline.tasks.demodatatasks.PrintField</title>
<path fill="none" stroke="black" d="M1069.5,-85.58C1069.5,-106.25 1069.5,-133.19 1069.5,-157.21"/>
<polygon fill="none" stroke="black" points="1066,-157.3 1069.5,-167.3 1073,-157.3 1066,-157.3"/>
</g>
<!-- pipeline.tasks.discovery_tasks.sample_twitter -->
<g id="node15" class="node">
<title>pipeline.tasks.discovery_tasks.sample_twitter</title>
<polygon fill="none" stroke="black" points="1504.5,-145 1504.5,-289 3112.5,-289 3112.5,-145 1504.5,-145"/>
<text text-anchor="middle" x="2308.5" y="-273.8" font-family="Times,serif" font-size="14.00">sample_twitter</text>
<polyline fill="none" stroke="black" points="1504.5,-266 3112.5,-266 "/>
<text text-anchor="start" x="1512.5" y="-250.8" font-family="Times,serif" font-size="14.00">data : DataFrame, NoneType</text>
<text text-anchor="start" x="1512.5" y="-235.8" font-family="Times,serif" font-size="14.00">end_date : str</text>
<text text-anchor="start" x="1512.5" y="-220.8" font-family="Times,serif" font-size="14.00">max_results : int</text>
<text text-anchor="start" x="1512.5" y="-205.8" font-family="Times,serif" font-size="14.00">query : str</text>
<text text-anchor="start" x="1512.5" y="-190.8" font-family="Times,serif" font-size="14.00">start_date : str</text>
<polyline fill="none" stroke="black" points="1504.5,-183 3112.5,-183 "/>
<text text-anchor="start" x="1512.5" y="-167.8" font-family="Times,serif" font-size="14.00">outputs(media_name: str, media_url: str, media_id: int, title: str, publish_date: object, url: str, last_updated: object, author: str, language: str, retweet_count: int, reply_count: int, like_count: int, quote_count: int, content: str)</text>
<text text-anchor="start" x="1512.5" y="-152.8" font-family="Times,serif" font-size="14.00">task_body()</text>
</g>
<!-- pipeline.tasks.discovery_tasks.sample_twitter&#45;&gt;pipeline.flowatom.FlowAtom -->
<g id="edge12" class="edge">
<title>pipeline.tasks.discovery_tasks.sample_twitter&#45;&gt;pipeline.flowatom.FlowAtom</title>
<path fill="none" stroke="black" d="M1838.95,-289.04C1521.92,-337 1131.55,-396.06 962.35,-421.66"/>
<polygon fill="none" stroke="black" points="961.63,-418.23 952.26,-423.19 962.67,-425.15 961.63,-418.23"/>
</g>
</g>
</svg>
